<?xml version="1.0" encoding="UTF-8"?>
<!-- Generator: Adobe Illustrator 24.1.2, SVG Export Plug-In . SVG Version: 6.00 Build 0)  -->
<svg version="1.1" id="Capa_1" xmlns="http://www.w3.org/2000/svg" xmlns:xlink="http://www.w3.org/1999/xlink" x="0px" y="0px" viewBox="0 0 159.5 49" style="enable-background:new 0 0 159.5 49;" xml:space="preserve">
<style type="text/css">
	.st0{display:none;}
	.st1{fill:#66AFD9;}
	.st2{fill:#268ECA;}
	.st3{fill:#007AC0;}
</style>
<g id="AZUL">
	<g>
		<g>
			<path class="st1" d="M24.3,11.1c-0.7-0.2-1.5-0.3-2.3-0.4v8c0.8,0.1,1.6,0.2,2.3,0.4V11.1z"/>
			<path class="st1" d="M20.3,10.7c-0.9,0.1-1.8,0.3-2.6,0.5v8c0.8-0.3,1.7-0.5,2.6-0.5V10.7z"/>
			<path class="st1" d="M16,12c-0.7,0.4-1.4,0.9-2,1.4v8c0.6-0.5,1.3-1,2-1.4V12z"/>
			<path class="st1" d="M12.3,15.3c-1.3,1.8-2.1,4.1-2.1,6.5c0,1.4,0.3,2.8,0.8,4c0.3-0.9,0.8-1.7,1.4-2.5V15.3z"/>
			<path class="st1" d="M28,13c-0.6-0.5-1.3-0.9-2-1.2v8c0.7,0.3,1.4,0.8,2,1.2V13z"/>
			<path class="st1" d="M29.7,14.7v8c0.8,0.9,1.4,2,1.9,3.1c0.5-1.2,0.8-2.6,0.8-4C32.3,19.1,31.4,16.6,29.7,14.7z"/>
		</g>
		<g>
			<path class="st2" d="M16.3,19.9c-0.9,0.5-1.8,1.1-2.6,1.8v8c0.8-0.7,1.6-1.3,2.6-1.8V19.9z"/>
			<path class="st2" d="M24.6,19.2c-0.9-0.3-1.9-0.4-2.9-0.5v8c1,0,2,0.2,2.9,0.5V19.2z"/>
			<path class="st2" d="M20.6,18.8c-1.1,0.1-2.2,0.3-3.1,0.7v8c1-0.4,2-0.6,3.1-0.7V18.8z"/>
			<path class="st2" d="M29.4,22.4v8c0.9,1,1.6,2.2,2.1,3.5c0.5-1.2,0.8-2.6,0.8-4C32.3,27,31.2,24.4,29.4,22.4z"/>
			<path class="st2" d="M28.3,21.3c-0.8-0.6-1.6-1.2-2.6-1.6v8c0.9,0.4,1.8,1,2.6,1.6V21.3z"/>
			<path class="st2" d="M12.6,23c-1.5,1.9-2.4,4.3-2.4,6.9c0,1.4,0.3,2.8,0.8,4c0.4-1,1-2,1.6-2.9V23z"/>
		</g>
		<path class="st3" d="M21.2,26.8c-6.1,0-11.1,5-11.1,11.1c0,6.1,5,11.1,11.1,11.1c6.1,0,11.1-5,11.1-11.1    C32.3,31.8,27.4,26.8,21.2,26.8z"/>
		<polygon class="st3" points="40.8,39.2 35.5,39.2 35.5,36.3 38,36.3 38,2.8 4.5,2.8 4.5,36.3 6.9,36.3 6.9,39.2 1.7,39.2 1.7,0     40.8,0   "/>
	</g>
	<g>
		<g>
			<path class="st3" d="M53,39.2V37l-2.3-4h1.8l1.3,2.4l1.3-2.4h1.8l-2.3,4v2.2H53z"/>
			<g>
				<path class="st3" d="M57.7,39.2l2.5-6.1h1.5l2.5,6.1h-1.7l-0.3-0.8h-2.3l-0.3,0.8H57.7z M60.2,37.1h1.5l-0.7-1.9L60.2,37.1z"/>
				<path class="st3" d="M64.6,39.2v-6.1h2.8c0.5,0,1,0.2,1.4,0.5c0.4,0.3,0.7,0.9,0.7,1.6c0,0.6-0.2,1.1-0.7,1.6      c-0.4,0.4-0.9,0.6-1.5,0.6h-1.2v1.8H64.6z M66.2,35.9h1.1c0.1,0,0.2,0,0.3-0.1c0.2-0.1,0.3-0.3,0.3-0.6c0-0.3-0.1-0.5-0.3-0.6      c-0.2-0.1-0.2-0.1-0.3-0.1h-1.1V35.9z"/>
				<path class="st3" d="M70,33.1h1.6v3.3c0,1,0.4,1.4,1.1,1.4c0.7,0,1.1-0.4,1.1-1.4v-3.3h1.6v3.5c0,0.9-0.3,1.6-0.8,2      c-0.5,0.5-1.2,0.7-1.9,0.7s-1.4-0.2-1.9-0.7c-0.5-0.5-0.8-1.1-0.8-2V33.1z"/>
				<path class="st3" d="M76.2,39.2v-6.1h4.5v1.5h-2.8v0.8h2.6v1.4h-2.6v0.9h2.9v1.5H76.2z"/>
				<path class="st3" d="M82.1,37.1c0.3,0.4,0.9,0.8,1.5,0.8c0.5,0,0.8-0.1,0.8-0.4c0-0.2-0.1-0.3-0.3-0.4c-0.1,0-0.2-0.1-0.4-0.1      c-0.2-0.1-0.7-0.2-1-0.3c-0.9-0.4-1.4-0.9-1.4-1.8c0-0.6,0.2-1,0.6-1.4c0.4-0.3,0.9-0.5,1.5-0.5c1,0,1.7,0.3,2.2,1l-1.1,0.9      c-0.3-0.3-0.6-0.5-1.1-0.5c-0.4,0-0.7,0.2-0.7,0.4c0,0.2,0.1,0.3,0.2,0.4c0.1,0,0.2,0.1,0.3,0.1c0.2,0,0.7,0.2,1.1,0.3      c1,0.4,1.5,0.9,1.5,1.8c0,1.2-0.8,1.9-2.4,1.9c-0.7,0-1.2-0.1-1.7-0.4c-0.4-0.3-0.8-0.6-1-0.9L82.1,37.1z"/>
				<path class="st3" d="M87.7,39.2v-4.6H86v-1.5h4.9v1.5h-1.6v4.6H87.7z"/>
				<path class="st3" d="M90.2,39.2l2.5-6.1h1.5l2.5,6.1h-1.7l-0.3-0.8h-2.3l-0.3,0.8H90.2z M92.7,37.1h1.5l-0.7-1.9L92.7,37.1z"/>
				<path class="st3" d="M97.5,37.1c0.3,0.4,0.9,0.8,1.5,0.8c0.5,0,0.8-0.1,0.8-0.4c0-0.2-0.1-0.3-0.3-0.4c-0.1,0-0.2-0.1-0.4-0.1      c-0.2-0.1-0.7-0.2-1-0.3c-0.9-0.4-1.4-0.9-1.4-1.8c0-0.6,0.2-1,0.6-1.4c0.4-0.3,0.9-0.5,1.5-0.5c1,0,1.7,0.3,2.2,1l-1.1,0.9      c-0.3-0.3-0.6-0.5-1.1-0.5c-0.4,0-0.7,0.2-0.7,0.4c0,0.2,0.1,0.3,0.2,0.4c0.1,0,0.2,0.1,0.3,0.1c0.2,0,0.7,0.2,1.1,0.3      c1,0.4,1.5,0.9,1.5,1.8c0,1.2-0.8,1.9-2.4,1.9c-0.7,0-1.2-0.1-1.7-0.4c-0.4-0.3-0.8-0.6-1-0.9L97.5,37.1z"/>
			</g>
			<g>
				<path class="st3" d="M104,39.2v-6.1h2.5c1,0,1.8,0.3,2.4,0.9c0.6,0.6,0.8,1.3,0.8,2.2c0,0.9-0.3,1.7-0.8,2.2      c-0.5,0.6-1.4,0.8-2.4,0.8H104z M105.7,37.7h0.7c0.7,0,1.2-0.2,1.4-0.5c0.2-0.3,0.3-0.6,0.3-1.1c0-0.4-0.1-0.8-0.3-1      c-0.2-0.3-0.7-0.4-1.4-0.4h-0.7V37.7z"/>
				<path class="st3" d="M110.4,39.2v-6.1h4.5v1.5H112v0.8h2.6v1.4H112v0.9h2.9v1.5H110.4z"/>
				<path class="st3" d="M115.6,39.2v-6.1h1.6v4.6h2.3v1.5H115.6z"/>
			</g>
			<g>
				<path class="st3" d="M122.1,39.2v-6.1h4.5v1.5h-2.8v0.8h2.6v1.4h-2.6v0.9h2.9v1.5H122.1z"/>
				<path class="st3" d="M128,37.1c0.3,0.4,0.9,0.8,1.5,0.8c0.5,0,0.8-0.1,0.8-0.4c0-0.2-0.1-0.3-0.3-0.4c-0.1,0-0.2-0.1-0.4-0.1      c-0.2-0.1-0.7-0.2-1-0.3c-0.9-0.4-1.4-0.9-1.4-1.8c0-0.6,0.2-1,0.6-1.4c0.4-0.3,0.9-0.5,1.5-0.5c1,0,1.7,0.3,2.2,1l-1.1,0.9      c-0.3-0.3-0.6-0.5-1.1-0.5c-0.4,0-0.7,0.2-0.7,0.4c0,0.2,0.1,0.3,0.2,0.4c0.1,0,0.2,0.1,0.3,0.1c0.2,0,0.7,0.2,1.1,0.3      c1,0.4,1.5,0.9,1.5,1.8c0,1.2-0.8,1.9-2.4,1.9c-0.7,0-1.2-0.1-1.7-0.4c-0.4-0.3-0.8-0.6-1-0.9L128,37.1z"/>
				<path class="st3" d="M133.5,39.2v-4.6h-1.6v-1.5h4.9v1.5h-1.6v4.6H133.5z"/>
				<path class="st3" d="M136,39.2l2.5-6.1h1.5l2.5,6.1h-1.7l-0.3-0.8h-2.3l-0.3,0.8H136z M138.5,37.1h1.5l-0.7-1.9L138.5,37.1z"/>
				<path class="st3" d="M142.8,39.2v-6.1h2.5c1,0,1.8,0.3,2.4,0.9c0.6,0.6,0.8,1.3,0.8,2.2c0,0.9-0.3,1.7-0.8,2.2      c-0.5,0.6-1.4,0.8-2.4,0.8H142.8z M144.5,37.7h0.7c0.7,0,1.2-0.2,1.4-0.5c0.2-0.3,0.3-0.6,0.3-1.1c0-0.4-0.1-0.8-0.3-1      c-0.2-0.3-0.7-0.4-1.4-0.4h-0.7V37.7z"/>
				<path class="st3" d="M154.6,38.4c-0.7,0.6-1.4,0.9-2.4,0.9c-0.9,0-1.7-0.3-2.4-0.9c-0.7-0.6-1-1.4-1-2.2c0-0.9,0.3-1.6,1-2.2      c0.7-0.6,1.4-0.9,2.4-0.9c0.9,0,1.7,0.3,2.4,0.9c0.7,0.6,1,1.4,1,2.2C155.6,37,155.3,37.8,154.6,38.4z M151.1,37.3      c0.3,0.3,0.7,0.5,1.2,0.5c0.5,0,0.8-0.2,1.2-0.5c0.3-0.3,0.5-0.7,0.5-1.2c0-0.4-0.2-0.8-0.5-1.2c-0.3-0.3-0.7-0.5-1.2-0.5      c-0.5,0-0.8,0.2-1.2,0.5c-0.3,0.3-0.5,0.7-0.5,1.2C150.6,36.6,150.8,37,151.1,37.3z"/>
			</g>
		</g>
		<g>
			<path class="st3" d="M50.8,28.4V14.2h3.8v10.6H60v3.5H50.8z"/>
			<path class="st3" d="M74.7,26.5c-1.5,1.4-3.3,2.1-5.5,2.1c-2.2,0-4-0.7-5.5-2.1c-1.5-1.4-2.3-3.2-2.3-5.2c0-2,0.7-3.7,2.3-5.2     c1.5-1.4,3.3-2.1,5.5-2.1c2.2,0,4,0.7,5.5,2.1c1.5,1.4,2.3,3.1,2.3,5.2C77,23.4,76.3,25.1,74.7,26.5z M66.5,24.1     c0.7,0.7,1.7,1.1,2.7,1.1c1.1,0,2-0.4,2.7-1.1c0.8-0.8,1.2-1.7,1.2-2.7c0-1-0.4-1.9-1.2-2.7c-0.7-0.8-1.7-1.2-2.7-1.2     c-1.1,0-2,0.4-2.7,1.2c-0.7,0.7-1.1,1.7-1.1,2.7C65.4,22.4,65.8,23.3,66.5,24.1z"/>
			<path class="st3" d="M82.4,28.4V17.7h-3.8v-3.5H90v3.5h-3.7v10.6H82.4z"/>
			<path class="st3" d="M93,28.4V14.2h10.4v3.5h-6.6v1.9h6.1v3.2h-6.1V25h6.7v3.4H93z"/>
			<path class="st3" d="M107,28.4V14.2h6.4c1.4,0,2.6,0.5,3.6,1.4c1,1,1.5,2.1,1.5,3.4c0,1.8-1,3.4-2.4,4l3.5,5.2h-4.4l-2.9-4.4h0     h-1.4v4.4H107z M110.9,20.9h2.1c1,0,1.7-0.6,1.7-1.7c0-0.9-0.6-1.5-1.3-1.5h-2.5V20.9z"/>
			<path class="st3" d="M121.8,28.4V14.2h3.8v14.1H121.8z M121.9,13.3l1-2.9h3.8l-2.1,2.9H121.9z"/>
			<path class="st3" d="M127.9,28.4l5.7-14.1h3.5l5.7,14.1h-4.1l-0.7-1.8h-5.4l-0.7,1.8H127.9z M133.7,23.5h3.4l-1.7-4.4L133.7,23.5     z"/>
			<path class="st3" d="M146.4,23.5c0.7,1,2,1.7,3.5,1.7c1.3,0,1.9-0.3,1.9-1c0-0.4-0.2-0.6-0.8-0.9c-0.3-0.1-0.5-0.2-0.8-0.3     c-0.5-0.2-1.6-0.5-2.2-0.7c-2.2-0.8-3.3-2.2-3.3-4.1c0-1.3,0.5-2.4,1.5-3.1c1-0.7,2.2-1.1,3.6-1.1c2.3,0,4.1,0.8,5.2,2.3     l-2.5,2.2c-0.6-0.7-1.5-1.1-2.5-1.1c-1,0-1.5,0.4-1.5,0.9c0,0.4,0.1,0.6,0.6,0.8c0.2,0.1,0.5,0.2,0.7,0.2     c0.5,0.1,1.6,0.4,2.5,0.7c2.4,0.9,3.4,2.1,3.4,4.1c0,2.7-1.9,4.5-5.6,4.5c-1.6,0-2.9-0.3-3.9-0.9c-1-0.6-1.8-1.3-2.3-2.1     L146.4,23.5z"/>
		</g>
	</g>
</g>
</svg>